<svg width="48" height="24" viewBox="0 0 48 24" fill="none" xmlns="http://www.w3.org/2000/svg">
<path fill-rule="evenodd" clip-rule="evenodd" d="M10.6053 0H46.9975C47.6821 0 48.1643 0.672456 47.9446 1.32088L41.1815 21.2835C40.6313 22.9073 39.1075 24 37.393 24H1.00078C0.316162 24 -0.166015 23.3275 0.0536638 22.6791L6.81683 2.71649C7.36698 1.09265 8.89081 0 10.6053 0ZM10.1981 6.4V19H12.0521V13.312H13.9601L18.2621 19H20.6561L15.5081 12.322L19.9901 6.4H17.7941L13.9061 11.674H12.0521V6.4H10.1981ZM21.3341 19H23.3681L26.2121 9.766H26.2481L29.2721 19H30.9821L34.0061 9.766H34.0421L36.8861 19H38.9201L34.9061 6.4H33.2681L30.1541 15.958H30.1181L26.9861 6.4H25.3481L21.3341 19Z" fill="#993CD3"/>
</svg>
