<svg width="48" height="24" viewBox="0 0 48 24" fill="none" xmlns="http://www.w3.org/2000/svg">
<path d="M15.0619 7.60352V17.3462H17.1269C18.6757 17.3813 20.0954 16.6194 20.7407 15.9845C21.386 15.3496 21.9766 14.3357 22.0313 12.4924C21.9884 10.9119 21.4533 9.7017 20.7407 9.00041C20.0344 8.3053 18.9473 7.6293 17.1269 7.60352H15.0619Z" fill="#DF477C"/>
<path fill-rule="evenodd" clip-rule="evenodd" d="M46.9975 0H10.6053C8.89081 0 7.36698 1.09265 6.81683 2.71649L0.0536638 22.6791C-0.166015 23.3275 0.316162 24 1.00078 24H37.393C39.1075 24 40.6313 22.9073 41.1815 21.2835L47.9446 1.32088C48.1643 0.672456 47.6821 0 46.9975 0ZM12.3512 7.60321H9.76991L10.6734 5.19051L17.1265 5.1905C19.7026 5.15245 21.8493 6.1546 22.8053 7.09513C23.8378 8.11104 24.8703 9.63489 24.8703 12.4285C24.8703 14.5873 24.225 16.365 22.9344 17.6349C21.6437 18.9047 19.6918 19.7264 17.1265 19.7936H12.3512V7.60321ZM27.3229 7.22173L29.1298 8.9995C30.3143 8.10268 30.9898 7.62615 32.2273 7.4755C33.4618 7.52505 33.97 7.75737 34.5505 8.36439C35.1025 9.40777 35.0477 10.006 34.2923 11.285C32.5684 13.1812 31.3705 14.3361 29.9576 15.6982C29.3532 16.2809 28.7094 16.9016 27.9682 17.6344V19.7932H37.5189L38.4224 17.2535H31.6737C32.3722 16.6044 32.9785 16.0497 33.5084 15.5649C35.9616 13.3203 36.7759 12.5753 37.5189 10.9043C37.9061 9.5076 38.1481 7.87597 36.3573 6.20585C34.8598 5.08435 33.7126 4.87043 31.582 5.0628C29.7008 5.50914 28.6797 5.99265 27.3229 7.22173Z" fill="#DF477C"/>
</svg>
