<svg width="48" height="24" viewBox="0 0 48 24" fill="none" xmlns="http://www.w3.org/2000/svg">
<path d="M15.0619 7.41406V17.1567H17.1269C18.6757 17.1918 20.0954 16.4299 20.7407 15.7951C21.386 15.1602 21.9766 14.1463 22.0313 12.303C21.9884 10.7224 21.4533 9.51225 20.7407 8.81095C20.0344 8.11585 18.9473 7.43985 17.1269 7.41406H15.0619Z" fill="#E15D29"/>
<path fill-rule="evenodd" clip-rule="evenodd" d="M46.9975 0H10.6053C8.89081 0 7.36698 1.09265 6.81683 2.71649L0.0536638 22.6791C-0.166015 23.3275 0.316162 24 1.00078 24H37.393C39.1075 24 40.6313 22.9073 41.1815 21.2835L47.9446 1.32088C48.1643 0.672456 47.6821 0 46.9975 0ZM12.3512 7.41376H9.76991L10.6734 5.00106L17.1265 5.00105C19.7026 4.963 21.8493 5.96515 22.8053 6.90567C23.8378 7.92159 24.8703 9.44544 24.8703 12.2391C24.8703 14.3978 24.225 16.1756 22.9344 17.4454C21.6437 18.7153 19.6918 19.5369 17.1265 19.6042H12.3512V7.41376ZM28.6575 5.00195V7.50125H34.5504L31.1947 10.8432V13.002C32.4534 12.67 33.1599 12.8234 34.4213 13.2559C35.3712 13.7803 35.5829 14.3988 35.5829 15.2877C35.4538 16.4305 34.4213 17.0654 33.1307 17.1924C31.4566 17.1132 30.6785 16.8115 29.5169 15.9226L27.71 17.7004C29.0006 19.0972 30.7936 19.7243 32.8725 19.8591C35.0666 19.8591 36.3573 19.0972 37.7769 17.5734C38.9385 15.6686 38.6804 13.7639 37.7769 12.494C36.7315 11.2636 35.841 10.7162 34.4213 10.7162L38.2932 6.90671V5.00195H28.6575Z" fill="#E15D29"/>
</svg>
