<svg width="48" height="24" viewBox="0 0 48 24" fill="none" xmlns="http://www.w3.org/2000/svg">
<path fill-rule="evenodd" clip-rule="evenodd" d="M10.6053 0H46.9975C47.6821 0 48.1643 0.672456 47.9446 1.32088L41.1815 21.2835C40.6313 22.9073 39.1075 24 37.393 24H1.00078C0.316162 24 -0.166015 23.3275 0.0536638 22.6791L6.81683 2.71649C7.36698 1.09265 8.89081 0 10.6053 0ZM14.3987 18.784C15.1307 19.072 15.9107 19.216 16.7387 19.216C17.6027 19.216 18.4127 19.054 19.1687 18.73C19.9247 18.406 20.5727 17.956 21.1127 17.38C21.6647 16.804 22.0967 16.12 22.4087 15.328C22.7327 14.524 22.8947 13.648 22.8947 12.7C22.8947 11.752 22.7387 10.876 22.4267 10.072C22.1147 9.268 21.6887 8.578 21.1487 8.002C20.6087 7.426 19.9667 6.982 19.2227 6.67C18.4787 6.346 17.6807 6.184 16.8287 6.184C16.0007 6.184 15.2207 6.334 14.4887 6.634C13.7687 6.922 13.1327 7.342 12.5807 7.894L13.7687 9.082C14.1767 8.71 14.6447 8.416 15.1727 8.2C15.7007 7.972 16.2587 7.858 16.8467 7.858C17.9387 7.858 18.8447 8.218 19.5647 8.938C20.2967 9.646 20.7407 10.576 20.8967 11.728H15.3347V13.366H20.9327C20.8127 14.566 20.3747 15.562 19.6187 16.354C18.8627 17.146 17.9087 17.542 16.7567 17.542C16.1687 17.542 15.6107 17.434 15.0827 17.218C14.5547 17.002 14.0867 16.702 13.6787 16.318L12.4907 17.506C13.0427 18.058 13.6787 18.484 14.3987 18.784ZM27.6176 6.4H25.7636V19H27.6176V13.312H29.5256L33.8276 19H36.2216L31.0736 12.322L35.5556 6.4H33.3596L29.4716 11.674H27.6176V6.4Z" fill="#D23D3D"/>
</svg>
