<svg width="48" height="24" viewBox="0 0 48 24" fill="none" xmlns="http://www.w3.org/2000/svg">
<path d="M31.4893 12.906H27.9793L28.8973 10.152L29.7433 7.56L31.4893 12.906Z" fill="#17B45D"/>
<path fill-rule="evenodd" clip-rule="evenodd" d="M10.6053 0H46.9975C47.6821 0 48.1643 0.672456 47.9446 1.32088L41.1815 21.2835C40.6313 22.9073 39.1075 24 37.393 24H1.00078C0.316162 24 -0.166015 23.3275 0.0536638 22.6791L6.81683 2.71649C7.36698 1.09265 8.89081 0 10.6053 0ZM15.7657 12.474H17.0257L20.8057 18H23.5057L18.8617 11.43L23.1457 5.4H20.5897L17.0257 10.566H15.7657V5.4H13.6057V18H15.7657V12.474ZM27.3493 14.814H32.1193L33.1813 18H35.5573L31.0573 5.4H28.5373L24.0373 18H26.3053L27.3493 14.814Z" fill="#17B45D"/>
</svg>
