<svg width="48" height="24" viewBox="0 0 48 24" fill="none" xmlns="http://www.w3.org/2000/svg">
<path fill-rule="evenodd" clip-rule="evenodd" d="M10.6053 0H46.9975C47.6821 0 48.1643 0.672456 47.9446 1.32088L41.1815 21.2835C40.6313 22.9073 39.1075 24 37.393 24H1.00078C0.316162 24 -0.166015 23.3275 0.0536638 22.6791L6.81683 2.71649C7.36698 1.09265 8.89081 0 10.6053 0ZM16.2139 12.474H17.4739L21.2539 18H23.9539L19.3099 11.43L23.5939 5.4H21.0379L17.4739 10.566H16.2139V5.4H14.0539V18H16.2139V12.474ZM24.3997 5.4L28.8097 14.454L27.2797 18H29.6197L35.0197 5.4H32.6797L29.9797 12.096L26.8477 5.4H24.3997Z" fill="#00A49A"/>
</svg>
