<svg width="48" height="24" viewBox="0 0 48 24" fill="none" xmlns="http://www.w3.org/2000/svg">
<path fill-rule="evenodd" clip-rule="evenodd" d="M10.6053 0H46.9975C47.6821 0 48.1643 0.672456 47.9446 1.32088L41.1815 21.2835C40.6313 22.9073 39.1075 24 37.393 24H1.00078C0.316162 24 -0.166015 23.3275 0.0536638 22.6791L6.81683 2.71649C7.36698 1.09265 8.89081 0 10.6053 0ZM13.3867 16.146H13.0267V18.162H13.3867C14.0467 18.162 14.6227 18.072 15.1147 17.892C15.6187 17.7 16.0327 17.376 16.3567 16.92C16.6927 16.452 16.9387 15.828 17.0947 15.048C17.2627 14.256 17.3467 13.26 17.3467 12.06V7.308H21.6667V18H23.8267V5.4H15.1867V12.06C15.1867 12.9 15.1387 13.584 15.0427 14.112C14.9587 14.64 14.8387 15.054 14.6827 15.354C14.5267 15.654 14.3347 15.864 14.1067 15.984C13.8907 16.092 13.6507 16.146 13.3867 16.146ZM34.4411 5.4H26.3411V18H34.4411V16.092H28.5011V12.474H33.3611V10.566H28.5011V7.308H34.4411V5.4Z" fill="#853892"/>
</svg>
