<svg width="36" height="36" viewBox="0 0 36 36" fill="none" xmlns="http://www.w3.org/2000/svg">
<path d="M25.1504 23.304C24.5104 24.488 23.5584 25.08 22.2944 25.08C21.0304 25.08 20.0704 24.488 19.4144 23.304C18.7744 22.12 18.4544 20.552 18.4544 18.6C18.4544 16.648 18.7744 15.08 19.4144 13.896C20.0704 12.712 21.0304 12.12 22.2944 12.12C23.5584 12.12 24.5104 12.712 25.1504 13.896C25.8064 15.08 26.1344 16.648 26.1344 18.6C26.1344 20.552 25.8064 22.12 25.1504 23.304Z" fill="#B4D445"/>
<path fill-rule="evenodd" clip-rule="evenodd" d="M18 36C27.9411 36 36 27.9411 36 18C36 8.05887 27.9411 0 18 0C8.05887 0 0 8.05887 0 18C0 27.9411 8.05887 36 18 36ZM9.51628 27H11.9163V10.2H7.26028L6.46828 12.408H9.51628V27ZM17.6144 24.936C18.7344 26.504 20.2944 27.288 22.2944 27.288C24.2944 27.288 25.8544 26.504 26.9744 24.936C28.0944 23.352 28.6544 21.24 28.6544 18.6C28.6544 15.976 28.0944 13.872 26.9744 12.288C25.8544 10.704 24.2944 9.912 22.2944 9.912C20.2944 9.912 18.7344 10.704 17.6144 12.288C16.4944 13.872 15.9344 15.976 15.9344 18.6C15.9344 21.24 16.4944 23.352 17.6144 24.936Z" fill="#B4D445"/>
</svg>
