<svg width="36" height="36" viewBox="0 0 36 36" fill="none" xmlns="http://www.w3.org/2000/svg">
<path d="M35.5 18C35.5 27.665 27.665 35.5 18 35.5C8.33502 35.5 0.5 27.665 0.5 18C0.5 8.33502 8.33502 0.5 18 0.5C27.665 0.5 35.5 8.33502 35.5 18Z" stroke="#DA4333"/>
<path d="M33.5 18C33.5 26.5604 26.5604 33.5 18 33.5C9.43959 33.5 2.5 26.5604 2.5 18C2.5 9.43959 9.43959 2.5 18 2.5C26.5604 2.5 33.5 9.43959 33.5 18Z" stroke="#DA4333"/>
<path d="M11.9749 27.0002H9.57486V12.4082H6.52686L7.31886 10.2002H11.9749V27.0002Z" fill="#090A0D"/>
<path d="M23.745 27.0002V23.2322H15.657V21.4322L20.433 10.2002H22.977L18.273 21.0962V21.1442H23.745V16.0802H26.145V21.1442H28.929L28.161 23.2322H26.145V27.0002H23.745Z" fill="#090A0D"/>
</svg>
