<svg width="36" height="36" viewBox="0 0 36 36" fill="none" xmlns="http://www.w3.org/2000/svg">
<path fill-rule="evenodd" clip-rule="evenodd" d="M18 36C27.9411 36 36 27.9411 36 18C36 8.05887 27.9411 0 18 0C8.05887 0 0 8.05887 0 18C0 27.9411 8.05887 36 18 36ZM14.0989 26.664C15.0909 27.08 16.2429 27.288 17.5549 27.288C19.4109 27.288 20.9229 26.744 22.0909 25.656C23.2589 24.568 23.8429 23.272 23.8429 21.768C23.8429 20.888 23.6749 20.112 23.3389 19.44C23.0189 18.752 22.5869 18.184 22.0429 17.736C21.5149 17.288 20.9069 16.952 20.2189 16.728C19.5469 16.488 18.8669 16.368 18.1789 16.368C17.5709 16.368 16.9869 16.44 16.4269 16.584C15.8829 16.728 15.4109 16.904 15.0109 17.112H14.9629L15.2269 12.408H22.7149L23.5069 10.2H13.2109L12.7309 19.152L14.7709 19.368C15.1709 19.112 15.6269 18.912 16.1389 18.768C16.6509 18.608 17.1789 18.528 17.7229 18.528C18.8589 18.528 19.7389 18.848 20.3629 19.488C20.9869 20.112 21.2989 20.864 21.2989 21.744C21.2989 22.656 20.9549 23.44 20.2669 24.096C19.5949 24.736 18.6909 25.056 17.5549 25.056C16.6589 25.056 15.8589 24.912 15.1549 24.624C14.4669 24.32 13.8349 23.904 13.2589 23.376L11.6029 25.032C12.2909 25.704 13.1229 26.248 14.0989 26.664Z" fill="#894E35"/>
</svg>
