<svg width="36" height="36" viewBox="0 0 36 36" fill="none" xmlns="http://www.w3.org/2000/svg">
<path d="M15.3346 13.128C16.0066 12.408 16.8786 12.048 17.9506 12.048C19.0226 12.048 19.8866 12.408 20.5426 13.128C21.2146 13.832 21.5506 14.648 21.5506 15.576C21.5506 16.52 21.2146 17.344 20.5426 18.048C19.8866 18.752 19.0226 19.104 17.9506 19.104C16.8786 19.104 16.0066 18.752 15.3346 18.048C14.6786 17.344 14.3506 16.52 14.3506 15.576C14.3506 14.648 14.6786 13.832 15.3346 13.128Z" fill="#A1A2A3"/>
<path fill-rule="evenodd" clip-rule="evenodd" d="M18 36C27.9411 36 36 27.9411 36 18C36 8.05887 27.9411 0 18 0C8.05887 0 0 8.05887 0 18C0 27.9411 8.05887 36 18 36ZM22.3666 11.664C21.2466 10.496 19.7986 9.912 18.0226 9.912C17.1106 9.912 16.2706 10.072 15.5026 10.392C14.7506 10.696 14.1106 11.112 13.5826 11.64C13.0546 12.168 12.6466 12.784 12.3586 13.488C12.0706 14.176 11.9266 14.896 11.9266 15.648C11.9266 16.48 12.0786 17.24 12.3826 17.928C12.7026 18.616 13.1106 19.2 13.6066 19.68C14.1186 20.144 14.7026 20.512 15.3586 20.784C16.0146 21.04 16.6866 21.168 17.3746 21.168C17.9186 21.168 18.4386 21.096 18.9346 20.952C19.4466 20.792 19.9186 20.576 20.3506 20.304L20.3986 20.352L15.1186 27L17.7586 27.288L20.2306 24.072C21.4946 22.424 22.4466 20.96 23.0866 19.68C23.7426 18.4 24.0706 17.136 24.0706 15.888C24.0706 14.224 23.5026 12.816 22.3666 11.664Z" fill="#A1A2A3"/>
</svg>
