<svg width="48" height="24" viewBox="0 0 48 24" fill="none" xmlns="http://www.w3.org/2000/svg">
<path fill-rule="evenodd" clip-rule="evenodd" d="M10.6053 0H46.9975C47.6821 0 48.1643 0.672456 47.9446 1.32088L41.1815 21.2835C40.6313 22.9073 39.1075 24 37.393 24H1.00078C0.316162 24 -0.166015 23.3275 0.0536638 22.6791L6.81683 2.71649C7.36698 1.09265 8.89081 0 10.6053 0ZM17.1174 18.73C17.8734 19.054 18.6834 19.216 19.5474 19.216C20.3754 19.216 21.1494 19.072 21.8694 18.784C22.6014 18.484 23.2434 18.058 23.7954 17.506L22.6074 16.318C22.1994 16.702 21.7314 17.002 21.2034 17.218C20.6754 17.434 20.1174 17.542 19.5294 17.542C18.2694 17.542 17.2494 17.074 16.4694 16.138C15.7014 15.202 15.3174 14.056 15.3174 12.7C15.3174 11.344 15.7014 10.198 16.4694 9.262C17.2494 8.326 18.2694 7.858 19.5294 7.858C20.1174 7.858 20.6754 7.972 21.2034 8.2C21.7314 8.416 22.1994 8.71 22.6074 9.082L23.7954 7.894C23.2434 7.342 22.6014 6.922 21.8694 6.634C21.1494 6.334 20.3754 6.184 19.5474 6.184C18.6834 6.184 17.8734 6.346 17.1174 6.67C16.3614 6.994 15.7074 7.444 15.1554 8.02C14.6154 8.596 14.1834 9.286 13.8594 10.09C13.5474 10.882 13.3914 11.752 13.3914 12.7C13.3914 13.648 13.5474 14.524 13.8594 15.328C14.1834 16.12 14.6154 16.804 15.1554 17.38C15.7074 17.956 16.3614 18.406 17.1174 18.73ZM29.4861 8.056V19H31.3581V8.056H34.9221L35.5161 6.4H25.6341V8.056H29.4861Z" fill="#4366BF"/>
</svg>
