<svg width="48" height="24" viewBox="0 0 48 24" fill="none" xmlns="http://www.w3.org/2000/svg">
<path d="M16.6225 10.8C16.2145 10.428 16.0105 9.936 16.0105 9.324C16.0105 8.7 16.2145 8.208 16.6225 7.848C17.0305 7.488 17.6845 7.308 18.5845 7.308H20.7625V11.34H18.5845C17.6845 11.34 17.0305 11.16 16.6225 10.8Z" fill="#007ABD"/>
<path d="M27.6046 11.808V7.308H29.7646C30.6646 7.308 31.3186 7.506 31.7266 7.902C32.1466 8.286 32.3566 8.838 32.3566 9.558C32.3566 10.242 32.1406 10.788 31.7086 11.196C31.2766 11.604 30.6286 11.808 29.7646 11.808H27.6046Z" fill="#007ABD"/>
<path fill-rule="evenodd" clip-rule="evenodd" d="M10.6053 0H46.9975C47.6821 0 48.1643 0.672456 47.9446 1.32088L41.1815 21.2835C40.6313 22.9073 39.1075 24 37.393 24H1.00078C0.316162 24 -0.166015 23.3275 0.0536638 22.6791L6.81683 2.71649C7.36698 1.09265 8.89081 0 10.6053 0ZM14.3365 11.538C14.7445 12.15 15.3685 12.606 16.2085 12.906L13.3825 18H15.7945L18.2425 13.248H20.7625V18H22.9225V5.4H18.5845C16.9045 5.4 15.6745 5.748 14.8945 6.444C14.1265 7.14 13.7425 8.1 13.7425 9.324C13.7425 10.188 13.9405 10.926 14.3365 11.538ZM29.7646 5.4H25.4446V18H27.6046V13.716H29.7646C31.3726 13.716 32.5846 13.338 33.4006 12.582C34.2166 11.826 34.6246 10.818 34.6246 9.558C34.6246 8.214 34.2346 7.188 33.4546 6.48C32.6866 5.76 31.4566 5.4 29.7646 5.4Z" fill="#007ABD"/>
</svg>
