<svg width="48" height="48" viewBox="0 0 48 48" fill="none" xmlns="http://www.w3.org/2000/svg">
<path fill-rule="evenodd" clip-rule="evenodd" d="M2 24C2 36.1503 11.8497 46 24 46C36.1503 46 46 36.1503 46 24C46 11.8497 36.1503 2 24 2C11.8497 2 2 11.8497 2 24ZM42 24C42 33.9411 33.9411 42 24 42C14.0589 42 6 33.9411 6 24C6 14.0589 14.0589 6 24 6C33.9411 6 42 14.0589 42 24ZM30.5859 22.5859L33.4143 25.4143L24.0001 34.8285L14.5859 25.4143L17.4143 22.5859L24.0001 29.1716L30.5859 22.5859ZM30.5859 14.5859L24.0001 21.1716L17.4143 14.5859L14.5859 17.4143L24.0001 26.8285L33.4143 17.4143L30.5859 14.5859Z" fill="white"/>
</svg>
