<svg width="48" height="48" viewBox="0 0 48 48" fill="none" xmlns="http://www.w3.org/2000/svg">
<path fill-rule="evenodd" clip-rule="evenodd" d="M24 46C11.8497 46 2 36.1503 2 24C2 11.8497 11.8497 2 24 2C36.1503 2 46 11.8497 46 24C46 36.1503 36.1503 46 24 46ZM24 42C33.9411 42 42 33.9411 42 24C42 14.0589 33.9411 6 24 6C14.0589 6 6 14.0589 6 24C6 33.9411 14.0589 42 24 42ZM29.5812 29.5812L35.1624 12.8378L18.4189 18.4189L12.8378 35.1624L29.5812 29.5812ZM26.4188 26.4188L19.1622 28.8376L21.5811 21.5811L28.8376 19.1622L26.4188 26.4188Z" fill="white"/>
</svg>
