<svg width="48" height="48" viewBox="0 0 48 48" fill="none" xmlns="http://www.w3.org/2000/svg">
<path fill-rule="evenodd" clip-rule="evenodd" d="M24 2C28.4183 2 32 5.58172 32 10V24C32 28.4183 28.4183 32 24 32C19.5817 32 16 28.4183 16 24V10C16 5.58172 19.5817 2 24 2ZM26 39.8762V42H32V46H16V42H22V39.8762C14.1074 38.892 8 32.1592 8 24V20H12V24C12 30.6274 17.3726 36 24 36C30.6274 36 36 30.6274 36 24V20H40V24C40 32.1592 33.8926 38.892 26 39.8762ZM20 10C20 7.79086 21.7909 6 24 6C26.2091 6 28 7.79086 28 10V24C28 26.2091 26.2091 28 24 28C21.7909 28 20 26.2091 20 24V10Z" fill="white"/>
</svg>
