<svg width="48" height="24" viewBox="0 0 48 24" fill="none" xmlns="http://www.w3.org/2000/svg">
<path d="M10.883 0.5H46.6126C46.9538 0.5 47.1948 0.834347 47.0869 1.15811L40.4374 21.1068C39.961 22.536 38.6235 23.5 37.117 23.5H1.38742C1.04615 23.5 0.805162 23.1657 0.913084 22.8419L7.56265 2.8932C8.03904 1.46401 9.37653 0.5 10.883 0.5Z" stroke="#993CD3"/>
<path d="M10.1981 19V6.4H12.0521V11.674H13.9061L17.7941 6.4H19.9901L15.5081 12.322L20.6561 19H18.2621L13.9601 13.312H12.0521V19H10.1981ZM23.3681 19H21.3341L25.3481 6.4H26.9861L30.1181 15.958H30.1541L33.2681 6.4H34.9061L38.9201 19H36.8861L34.0421 9.766H34.0061L30.9821 19H29.2721L26.2481 9.766H26.2121L23.3681 19Z" fill="#993CD3"/>
</svg>
