<svg width="48" height="24" viewBox="0 0 48 24" fill="none" xmlns="http://www.w3.org/2000/svg">
<path fill-rule="evenodd" clip-rule="evenodd" d="M10.8831 0H46.6126C47.2952 0 47.7772 0.668697 47.5613 1.31623L40.9118 21.2649C40.3673 22.8983 38.8387 24 37.117 24H1.38748C0.704926 24 0.222958 23.3313 0.438802 22.6838L7.08836 2.73509C7.63282 1.10172 9.16137 0 10.8831 0ZM10.1982 6.4V19H12.0522V13.312H13.9602L18.2622 19H20.6562L15.5082 12.322L19.9902 6.4H17.7942L13.9062 11.674H12.0522V6.4H10.1982ZM21.3342 19H23.3682L26.2122 9.766H26.2482L29.2722 19H30.9822L34.0062 9.766H34.0422L36.8862 19H38.9202L34.9062 6.4H33.2682L30.1542 15.958H30.1182L26.9862 6.4H25.3482L21.3342 19Z" fill="#993CD3"/>
</svg>
