<svg width="48" height="24" viewBox="0 0 48 24" fill="none" xmlns="http://www.w3.org/2000/svg">
<path d="M10.883 0.5H46.6126C46.9538 0.5 47.1948 0.834347 47.0869 1.15811L40.4374 21.1068C39.961 22.536 38.6235 23.5 37.117 23.5H1.38742C1.04615 23.5 0.805162 23.1657 0.913084 22.8419L7.56265 2.8932C8.03904 1.46401 9.37653 0.5 10.883 0.5Z" stroke="#DF477C"/>
<path fill-rule="evenodd" clip-rule="evenodd" d="M12.5397 7.60321H10L10.8889 5.19051L17.2381 5.1905C19.7727 5.15245 21.8848 6.1546 22.8254 7.09513C23.8413 8.11104 24.8571 9.63489 24.8571 12.4285C24.8571 14.5873 24.2222 16.365 22.9524 17.6349C21.6825 18.9047 19.762 19.7264 17.2381 19.7936H12.5397V7.60321ZM15.2064 7.60341V17.3461H17.2381C18.7619 17.3812 20.1587 16.6193 20.7937 15.9844C21.4286 15.3495 22.0097 14.3356 22.0635 12.4923C22.0212 10.9118 21.4948 9.70159 20.7937 9.0003C20.0987 8.30519 19.0292 7.62919 17.2381 7.60341H15.2064Z" fill="#DF477C"/>
<path d="M29.0478 8.9995L27.27 7.22173C28.6049 5.99265 29.6096 5.50914 31.4605 5.0628C33.5567 4.87043 34.6854 5.08435 36.1589 6.20585C37.9208 7.87597 37.6827 9.5076 37.3018 10.9043C36.4129 12.9362 35.4202 13.5989 31.5507 17.2535H38.1907L37.3018 19.7932H27.9049V17.6344C30.3387 15.1885 31.7054 13.9924 34.1272 11.285C34.8704 10.006 34.9242 9.40777 34.3811 8.36439C33.81 7.75737 33.31 7.52505 32.0954 7.4755C30.8779 7.62615 30.2133 8.10268 29.0478 8.9995Z" fill="#DF477C"/>
</svg>
