<svg width="48" height="24" viewBox="0 0 48 24" fill="none" xmlns="http://www.w3.org/2000/svg">
<path fill-rule="evenodd" clip-rule="evenodd" d="M46.6126 0H10.8831C9.16137 0 7.63282 1.10172 7.08836 2.73509L0.438802 22.6838C0.222958 23.3313 0.704926 24 1.38748 24H37.117C38.8387 24 40.3673 22.8983 40.9118 21.2649L47.5613 1.31623C47.7772 0.668697 47.2952 0 46.6126 0ZM12.5397 7.60321H10.0001L10.8889 5.19051L17.2382 5.1905C19.7727 5.15245 21.8849 6.1546 22.8255 7.09513C23.8413 8.11104 24.8572 9.63489 24.8572 12.4285C24.8572 14.5873 24.2223 16.365 22.9524 17.6349C21.6826 18.9047 19.7621 19.7264 17.2382 19.7936H12.5397V7.60321ZM15.2064 7.60341V17.3461H17.2382C18.762 17.3812 20.1588 16.6193 20.7937 15.9844C21.4287 15.3495 22.0097 14.3356 22.0636 12.4923C22.0213 10.9118 21.4948 9.7016 20.7937 9.0003C20.0988 8.30519 19.0292 7.62919 17.2382 7.60341H15.2064ZM27.27 7.22173L29.0477 8.9995C30.2132 8.10268 30.8778 7.62615 32.0954 7.4755C33.3099 7.52505 33.81 7.75737 34.3811 8.36439C34.9242 9.40777 34.8703 10.006 34.1271 11.285C32.431 13.1812 31.2524 14.3361 29.8622 15.6982C29.2675 16.2809 28.6341 16.9016 27.9049 17.6344V19.7932H37.3017L38.1906 17.2535H31.5507C32.2379 16.6044 32.8345 16.0497 33.3558 15.5649C35.7695 13.3203 36.5707 12.5753 37.3017 10.9043C37.6827 9.5076 37.9207 7.87597 36.1588 6.20585C34.6854 5.08435 33.5567 4.87043 31.4604 5.0628C29.6096 5.50914 28.6048 5.99265 27.27 7.22173Z" fill="#DF477C"/>
</svg>
