<svg width="48" height="24" viewBox="0 0 48 24" fill="none" xmlns="http://www.w3.org/2000/svg">
<path d="M10.883 0.5H46.6126C46.9538 0.5 47.1948 0.834347 47.0869 1.15811L40.4374 21.1068C39.961 22.536 38.6235 23.5 37.117 23.5H1.38742C1.04615 23.5 0.805162 23.1657 0.913084 22.8419L7.56265 2.8932C8.03904 1.46401 9.37653 0.5 10.883 0.5Z" stroke="#E15D29"/>
<path fill-rule="evenodd" clip-rule="evenodd" d="M12.5397 7.41376H10L10.8889 5.00106L17.2381 5.00105C19.7727 4.963 21.8848 5.96515 22.8254 6.90567C23.8413 7.92159 24.8571 9.44544 24.8571 12.2391C24.8571 14.3978 24.2222 16.1756 22.9524 17.4454C21.6825 18.7153 19.762 19.5369 17.2381 19.6042H12.5397V7.41376ZM15.2064 7.41396V17.1566H17.2381C18.7619 17.1917 20.1587 16.4298 20.7937 15.795C21.4286 15.1601 22.0097 14.1462 22.0635 12.3028C22.0212 10.7223 21.4948 9.51214 20.7937 8.81085C20.0987 8.11574 19.0292 7.43974 17.2381 7.41396H15.2064Z" fill="#E15D29"/>
<path d="M28.5831 7.50125V5.00195H38.0636V6.90671L34.2541 10.7162C35.6509 10.7162 36.527 11.2636 37.5556 12.494C38.4445 13.7639 38.6985 15.6686 37.5556 17.5734C36.1588 19.0972 34.889 19.8591 32.7302 19.8591C30.6848 19.7243 28.9207 19.0972 27.6509 17.7004L29.4287 15.9226C30.5715 16.8115 31.3371 17.1132 32.9842 17.1924C34.2541 17.0654 35.2699 16.4305 35.3969 15.2877C35.3969 14.3988 35.1887 13.7803 34.2541 13.2559C33.0129 12.8234 32.3179 12.67 31.0795 13.002V10.8432L34.381 7.50125H28.5831Z" fill="#E15D29"/>
</svg>
