<svg width="48" height="24" viewBox="0 0 48 24" fill="none" xmlns="http://www.w3.org/2000/svg">
<path fill-rule="evenodd" clip-rule="evenodd" d="M46.6126 0H10.8831C9.16137 0 7.63282 1.10172 7.08836 2.73509L0.438802 22.6838C0.222958 23.3313 0.704926 24 1.38748 24H37.117C38.8387 24 40.3673 22.8983 40.9118 21.2649L47.5613 1.31623C47.7772 0.668697 47.2952 0 46.6126 0ZM12.5397 7.41376H10.0001L10.8889 5.00106L17.2382 5.00105C19.7727 4.963 21.8849 5.96515 22.8255 6.90567C23.8413 7.92159 24.8572 9.44544 24.8572 12.2391C24.8572 14.3978 24.2223 16.1756 22.9524 17.4454C21.6826 18.7153 19.7621 19.5369 17.2382 19.6042H12.5397V7.41376ZM15.2064 7.41396V17.1566H17.2382C18.762 17.1917 20.1588 16.4298 20.7937 15.795C21.4287 15.1601 22.0097 14.1462 22.0636 12.3028C22.0213 10.7223 21.4948 9.51214 20.7937 8.81085C20.0988 8.11574 19.0292 7.43974 17.2382 7.41396H15.2064ZM28.583 5.00195V7.50125H34.381L31.0794 10.8432V13.002C32.3178 12.67 33.0129 12.8234 34.254 13.2559C35.1886 13.7803 35.3968 14.3988 35.3968 15.2877C35.2699 16.4305 34.254 17.0654 32.9841 17.1924C31.337 17.1132 30.5715 16.8115 29.4286 15.9226L27.6508 17.7004C28.9207 19.0972 30.6848 19.7243 32.7302 19.8591C34.8889 19.8591 36.1588 19.0972 37.5556 17.5734C38.6984 15.6686 38.4445 13.7639 37.5556 12.494C36.5269 11.2636 35.6508 10.7162 34.254 10.7162L38.0635 6.90671V5.00195H28.583Z" fill="#E15D29"/>
</svg>
