<svg width="48" height="24" viewBox="0 0 48 24" fill="none" xmlns="http://www.w3.org/2000/svg">
<path d="M10.883 0.5H46.6126C46.9538 0.5 47.1948 0.834347 47.0869 1.15811L40.4374 21.1068C39.961 22.536 38.6235 23.5 37.117 23.5H1.38742C1.04615 23.5 0.805162 23.1657 0.913084 22.8419L7.56265 2.8932C8.03904 1.46401 9.37653 0.5 10.883 0.5Z" stroke="#D23D3D"/>
<path d="M16.7387 19.216C15.9107 19.216 15.1307 19.072 14.3987 18.784C13.6787 18.484 13.0427 18.058 12.4907 17.506L13.6787 16.318C14.0867 16.702 14.5547 17.002 15.0827 17.218C15.6107 17.434 16.1687 17.542 16.7567 17.542C17.9087 17.542 18.8627 17.146 19.6187 16.354C20.3747 15.562 20.8127 14.566 20.9327 13.366H15.3347V11.728H20.8967C20.7407 10.576 20.2967 9.646 19.5647 8.938C18.8447 8.218 17.9387 7.858 16.8467 7.858C16.2587 7.858 15.7007 7.972 15.1727 8.2C14.6447 8.416 14.1767 8.71 13.7687 9.082L12.5807 7.894C13.1327 7.342 13.7687 6.922 14.4887 6.634C15.2207 6.334 16.0007 6.184 16.8287 6.184C17.6807 6.184 18.4787 6.346 19.2227 6.67C19.9667 6.982 20.6087 7.426 21.1487 8.002C21.6887 8.578 22.1147 9.268 22.4267 10.072C22.7387 10.876 22.8947 11.752 22.8947 12.7C22.8947 13.648 22.7327 14.524 22.4087 15.328C22.0967 16.12 21.6647 16.804 21.1127 17.38C20.5727 17.956 19.9247 18.406 19.1687 18.73C18.4127 19.054 17.6027 19.216 16.7387 19.216ZM25.7636 19V6.4H27.6176V11.674H29.4716L33.3596 6.4H35.5556L31.0736 12.322L36.2216 19H33.8276L29.5256 13.312H27.6176V19H25.7636Z" fill="#D23D3D"/>
</svg>
