<svg width="48" height="24" viewBox="0 0 48 24" fill="none" xmlns="http://www.w3.org/2000/svg">
<path fill-rule="evenodd" clip-rule="evenodd" d="M10.8831 0H46.6126C47.2952 0 47.7772 0.668697 47.5613 1.31623L40.9118 21.2649C40.3673 22.8983 38.8387 24 37.117 24H1.38748C0.704926 24 0.222958 23.3313 0.438802 22.6838L7.08836 2.73509C7.63282 1.10172 9.16137 0 10.8831 0ZM16.1175 18.73C16.8735 19.054 17.6835 19.216 18.5475 19.216C19.3755 19.216 20.1495 19.072 20.8695 18.784C21.6015 18.484 22.2435 18.058 22.7955 17.506L21.6075 16.318C21.1995 16.702 20.7315 17.002 20.2035 17.218C19.6755 17.434 19.1175 17.542 18.5295 17.542C17.2695 17.542 16.2495 17.074 15.4695 16.138C14.7015 15.202 14.3175 14.056 14.3175 12.7C14.3175 11.344 14.7015 10.198 15.4695 9.262C16.2495 8.326 17.2695 7.858 18.5295 7.858C19.1175 7.858 19.6755 7.972 20.2035 8.2C20.7315 8.416 21.1995 8.71 21.6075 9.082L22.7955 7.894C22.2435 7.342 21.6015 6.922 20.8695 6.634C20.1495 6.334 19.3755 6.184 18.5475 6.184C17.6835 6.184 16.8735 6.346 16.1175 6.67C15.3615 6.994 14.7075 7.444 14.1555 8.02C13.6154 8.596 13.1835 9.286 12.8595 10.09C12.5475 10.882 12.3914 11.752 12.3914 12.7C12.3914 13.648 12.5475 14.524 12.8595 15.328C13.1835 16.12 13.6154 16.804 14.1555 17.38C14.7075 17.956 15.3615 18.406 16.1175 18.73ZM28.4861 8.056V19H30.3581V8.056H33.9221L34.5161 6.4H24.6341V8.056H28.4861Z" fill="#4366BF"/>
</svg>
