<svg width="48" height="24" viewBox="0 0 48 24" fill="none" xmlns="http://www.w3.org/2000/svg">
<path d="M10.883 0.5H46.6126C46.9538 0.5 47.1948 0.834347 47.0869 1.15811L40.4374 21.1068C39.961 22.536 38.6235 23.5 37.117 23.5H1.38742C1.04615 23.5 0.805162 23.1657 0.913084 22.8419L7.56265 2.8932C8.03904 1.46401 9.37653 0.5 10.883 0.5Z" stroke="#4366BF"/>
<path d="M18.5474 19.216C17.6834 19.216 16.8734 19.054 16.1174 18.73C15.3614 18.406 14.7074 17.956 14.1554 17.38C13.6154 16.804 13.1834 16.12 12.8594 15.328C12.5474 14.524 12.3914 13.648 12.3914 12.7C12.3914 11.752 12.5474 10.882 12.8594 10.09C13.1834 9.286 13.6154 8.596 14.1554 8.02C14.7074 7.444 15.3614 6.994 16.1174 6.67C16.8734 6.346 17.6834 6.184 18.5474 6.184C19.3754 6.184 20.1494 6.334 20.8694 6.634C21.6014 6.922 22.2434 7.342 22.7954 7.894L21.6074 9.082C21.1994 8.71 20.7314 8.416 20.2034 8.2C19.6754 7.972 19.1174 7.858 18.5294 7.858C17.2694 7.858 16.2494 8.326 15.4694 9.262C14.7014 10.198 14.3174 11.344 14.3174 12.7C14.3174 14.056 14.7014 15.202 15.4694 16.138C16.2494 17.074 17.2694 17.542 18.5294 17.542C19.1174 17.542 19.6754 17.434 20.2034 17.218C20.7314 17.002 21.1994 16.702 21.6074 16.318L22.7954 17.506C22.2434 18.058 21.6014 18.484 20.8694 18.784C20.1494 19.072 19.3754 19.216 18.5474 19.216ZM28.4861 19V8.056H24.6341V6.4H34.5161L33.9221 8.056H30.3581V19H28.4861Z" fill="#4366BF"/>
</svg>
