<svg width="36" height="18" viewBox="0 0 36 18" fill="none" xmlns="http://www.w3.org/2000/svg">
<path fill-rule="evenodd" clip-rule="evenodd" d="M34.6126 0H8.8831C7.16138 0 5.63282 1.10172 5.08836 2.73509L0.438802 16.6838C0.222958 17.3313 0.704928 18 1.38749 18H27.117C28.8387 18 30.3673 16.8983 30.9118 15.2649L35.5613 1.31623C35.7772 0.668695 35.2952 0 34.6126 0ZM9.40482 5.70241H7.50006L8.16673 3.89288L12.9286 3.89288C14.8296 3.86434 16.4137 4.61595 17.1191 5.32134C17.881 6.08328 18.6429 7.22617 18.6429 9.32141C18.6429 10.9405 18.1667 12.2738 17.2143 13.2262C16.262 14.1785 14.8216 14.7948 12.9286 14.8452H9.40482V5.70241ZM11.4048 5.70253V13.0095H12.9286C14.0715 13.0359 15.1191 12.4644 15.5953 11.9883C16.0715 11.5121 16.5073 10.7517 16.5477 9.3692C16.516 8.18381 16.1211 7.27617 15.5953 6.7502C15.0741 6.22887 14.2719 5.72187 12.9286 5.70253H11.4048ZM20.4524 5.41629L21.7858 6.74963C22.6599 6.07701 23.1583 5.71961 24.0715 5.60662C24.9824 5.64379 25.3574 5.81803 25.7858 6.27329C26.1931 7.05583 26.1527 7.50446 25.5953 8.46377C24.3232 9.88592 23.4392 10.7521 22.3966 11.7737C21.9506 12.2107 21.4755 12.6762 20.9286 13.2258V14.8449H27.9763L28.6429 12.9401H23.663C24.1784 12.4533 24.6258 12.0372 25.0168 11.6737C26.8271 9.99024 27.428 9.43146 27.9763 8.1782C28.262 7.1307 28.4405 5.90698 27.1191 4.65439C26.014 3.81326 25.1675 3.65282 23.5953 3.7971C22.2072 4.13186 21.4536 4.49449 20.4524 5.41629Z" fill="#DF477C"/>
</svg>
