<svg width="36" height="18" viewBox="0 0 36 18" fill="none" xmlns="http://www.w3.org/2000/svg">
<path fill-rule="evenodd" clip-rule="evenodd" d="M34.6126 0H8.8831C7.16138 0 5.63282 1.10172 5.08836 2.73509L0.438802 16.6838C0.222958 17.3313 0.704928 18 1.38749 18H27.117C28.8387 18 30.3673 16.8983 30.9118 15.2649L35.5613 1.31623C35.7772 0.668695 35.2952 0 34.6126 0ZM9.40482 5.56032H7.50006L8.16673 3.75079L12.9286 3.75079C14.8296 3.72225 16.4137 4.47386 17.1191 5.17925C17.881 5.94119 18.6429 7.08408 18.6429 9.17932C18.6429 10.7984 18.1667 12.1317 17.2143 13.0841C16.262 14.0365 14.8216 14.6527 12.9286 14.7031H9.40482V5.56032ZM11.4048 5.56044V12.8674H12.9286C14.0715 12.8938 15.1191 12.3223 15.5953 11.8462C16.0715 11.37 16.5073 10.6096 16.5477 9.22711C16.516 8.04172 16.1211 7.13408 15.5953 6.60811C15.0741 6.08678 14.2719 5.57978 12.9286 5.56044H11.4048ZM21.4372 3.75146V5.62594H25.7857L23.3095 8.13242V9.75146C24.2383 9.50252 24.7596 9.61754 25.6905 9.94194C26.3914 10.3352 26.5476 10.7991 26.5476 11.4657C26.4524 12.3229 25.6905 12.7991 24.7381 12.8943C23.5028 12.8349 22.9286 12.6086 22.0714 11.9419L20.7381 13.2753C21.6905 14.3229 23.0136 14.7932 24.5476 14.8943C26.1667 14.8943 27.119 14.3229 28.1667 13.18C29.0238 11.7515 28.8333 10.3229 28.1667 9.37051C27.3952 8.4477 26.7381 8.03718 25.6905 8.03718L28.5476 5.18004V3.75146H21.4372Z" fill="#E15D29"/>
</svg>
