<svg width="36" height="18" viewBox="0 0 36 18" fill="none" xmlns="http://www.w3.org/2000/svg">
<path fill-rule="evenodd" clip-rule="evenodd" d="M7.44155 0H35.3063C35.6476 0 35.8886 0.334347 35.7807 0.658112L30.4559 16.6325C30.1837 17.4491 29.4194 18 28.5585 18H0.693743C0.352464 18 0.111479 17.6657 0.219401 17.3419L5.54418 1.36754C5.81641 0.55086 6.58069 0 7.44155 0ZM11.5955 9.702H12.5755L15.5155 14H17.6155L14.0035 8.89L17.3355 4.2H15.3475L12.5755 8.218H11.5955V4.2H9.91555V14H11.5955V9.702ZM20.605 11.522H24.315L25.141 14H26.989L23.489 4.2H21.529L18.029 14H19.793L20.605 11.522ZM23.825 10.038H21.095L21.809 7.896L22.467 5.88L23.125 7.896L23.825 10.038Z" fill="#17B45D"/>
</svg>
