<svg width="36" height="18" viewBox="0 0 36 18" fill="none" xmlns="http://www.w3.org/2000/svg">
<path fill-rule="evenodd" clip-rule="evenodd" d="M7.44155 0H35.3063C35.6476 0 35.8886 0.334347 35.7807 0.658112L30.4559 16.6325C30.1837 17.4491 29.4194 18 28.5585 18H0.693743C0.352464 18 0.111479 17.6657 0.219401 17.3419L5.54418 1.36754C5.81641 0.55086 6.58069 0 7.44155 0ZM11.9442 9.702H12.9242L15.8642 14H17.9642L14.3522 8.89L17.6842 4.2H15.6962L12.9242 8.218H11.9442V4.2H10.2642V14H11.9442V9.702ZM18.3109 4.2L21.7409 11.242L20.5509 14H22.3709L26.5709 4.2H24.7509L22.6509 9.408L20.2149 4.2H18.3109Z" fill="#00A49A"/>
</svg>
