<svg width="18" height="18" viewBox="0 0 18 18" fill="none" xmlns="http://www.w3.org/2000/svg">
<path fill-rule="evenodd" clip-rule="evenodd" d="M9 18C13.9706 18 18 13.9706 18 9C18 4.02944 13.9706 0 9 0C4.02944 0 0 4.02944 0 9C0 13.9706 4.02944 18 9 18ZM5.11163 13H6.21163V5.3H4.07763L3.71463 6.312H5.11163V13ZM8.82327 12.054C9.3366 12.7727 10.0516 13.132 10.9683 13.132C11.8849 13.132 12.5999 12.7727 13.1133 12.054C13.6266 11.328 13.8833 10.36 13.8833 9.15C13.8833 7.94733 13.6266 6.983 13.1133 6.257C12.5999 5.531 11.8849 5.168 10.9683 5.168C10.0516 5.168 9.3366 5.531 8.82327 6.257C8.30994 6.983 8.05327 7.94733 8.05327 9.15C8.05327 10.36 8.30994 11.328 8.82327 12.054ZM12.2773 11.306C11.9839 11.8487 11.5476 12.12 10.9683 12.12C10.3889 12.12 9.94894 11.8487 9.64827 11.306C9.35494 10.7633 9.20827 10.0447 9.20827 9.15C9.20827 8.25533 9.35494 7.53667 9.64827 6.994C9.94894 6.45133 10.3889 6.18 10.9683 6.18C11.5476 6.18 11.9839 6.45133 12.2773 6.994C12.5779 7.53667 12.7283 8.25533 12.7283 9.15C12.7283 10.0447 12.5779 10.7633 12.2773 11.306Z" fill="#B4D445"/>
</svg>
