<svg width="18" height="18" viewBox="0 0 18 18" fill="none" xmlns="http://www.w3.org/2000/svg">
<path fill-rule="evenodd" clip-rule="evenodd" d="M9 18C13.9706 18 18 13.9706 18 9C18 4.02944 13.9706 0 9 0C4.02944 0 0 4.02944 0 9C0 13.9706 4.02944 18 9 18ZM7.04944 13.832C7.54544 14.04 8.12144 14.144 8.77744 14.144C9.70544 14.144 10.4614 13.872 11.0454 13.328C11.6294 12.784 11.9214 12.136 11.9214 11.384C11.9214 10.944 11.8374 10.556 11.6694 10.22C11.5094 9.876 11.2934 9.592 11.0214 9.368C10.7574 9.144 10.4534 8.976 10.1094 8.864C9.77344 8.744 9.43344 8.684 9.08944 8.684C8.78544 8.684 8.49344 8.72 8.21344 8.792C7.94144 8.864 7.70544 8.952 7.50544 9.056H7.48144L7.61344 6.704H11.3574L11.7534 5.6H6.60544L6.36544 10.076L7.38544 10.184C7.58544 10.056 7.81344 9.956 8.06944 9.884C8.32544 9.804 8.58944 9.764 8.86144 9.764C9.42944 9.764 9.86944 9.924 10.1814 10.244C10.4934 10.556 10.6494 10.932 10.6494 11.372C10.6494 11.828 10.4774 12.22 10.1334 12.548C9.79744 12.868 9.34544 13.028 8.77744 13.028C8.32944 13.028 7.92944 12.956 7.57744 12.812C7.23344 12.66 6.91744 12.452 6.62944 12.188L5.80144 13.016C6.14544 13.352 6.56144 13.624 7.04944 13.832Z" fill="#894E35"/>
</svg>
