<svg width="18" height="18" viewBox="0 0 18 18" fill="none" xmlns="http://www.w3.org/2000/svg">
<path fill-rule="evenodd" clip-rule="evenodd" d="M9 18C13.9706 18 18 13.9706 18 9C18 4.02944 13.9706 0 9 0C4.02944 0 0 4.02944 0 9C0 13.9706 4.02944 18 9 18ZM11.1833 6.332C10.6233 5.748 9.8993 5.456 9.0113 5.456C8.5553 5.456 8.1353 5.536 7.7513 5.696C7.3753 5.848 7.0553 6.056 6.7913 6.32C6.5273 6.584 6.3233 6.892 6.1793 7.244C6.0353 7.588 5.9633 7.948 5.9633 8.324C5.9633 8.74 6.0393 9.12 6.1913 9.464C6.3513 9.808 6.5553 10.1 6.8033 10.34C7.0593 10.572 7.3513 10.756 7.6793 10.892C8.0073 11.02 8.3433 11.084 8.6873 11.084C8.9593 11.084 9.2193 11.048 9.4673 10.976C9.7233 10.896 9.9593 10.788 10.1753 10.652L10.1993 10.676L7.5593 14L8.8793 14.144L10.1153 12.536C10.7473 11.712 11.2233 10.98 11.5433 10.34C11.8713 9.7 12.0353 9.068 12.0353 8.444C12.0353 7.612 11.7513 6.908 11.1833 6.332ZM7.6673 7.064C8.0033 6.704 8.4393 6.524 8.9753 6.524C9.5113 6.524 9.9433 6.704 10.2713 7.064C10.6073 7.416 10.7753 7.824 10.7753 8.288C10.7753 8.76 10.6073 9.172 10.2713 9.524C9.9433 9.876 9.5113 10.052 8.9753 10.052C8.4393 10.052 8.0033 9.876 7.6673 9.524C7.3393 9.172 7.1753 8.76 7.1753 8.288C7.1753 7.824 7.3393 7.416 7.6673 7.064Z" fill="#A1A2A3"/>
</svg>
