<svg width="36" height="18" viewBox="0 0 36 18" fill="none" xmlns="http://www.w3.org/2000/svg">
<path fill-rule="evenodd" clip-rule="evenodd" d="M7.44155 0H35.3063C35.6476 0 35.8886 0.334347 35.7807 0.658112L30.4559 16.6325C30.1837 17.4491 29.4194 18 28.5585 18H0.693743C0.352464 18 0.111479 17.6657 0.219401 17.3419L5.54418 1.36754C5.81641 0.55086 6.58069 0 7.44155 0ZM10.4839 8.974C10.8012 9.45 11.2866 9.80467 11.9399 10.038L9.74191 14H11.6179L13.5219 10.304H15.4819V14H17.1619V4.2H13.7879C12.4812 4.2 11.5246 4.47067 10.9179 5.012C10.3206 5.55333 10.0219 6.3 10.0219 7.252C10.0219 7.924 10.1759 8.498 10.4839 8.974ZM12.2619 8.4C11.9446 8.11067 11.7859 7.728 11.7859 7.252C11.7859 6.76667 11.9446 6.384 12.2619 6.104C12.5792 5.824 13.0879 5.684 13.7879 5.684H15.4819V8.82H13.7879C13.0879 8.82 12.5792 8.68 12.2619 8.4ZM22.4836 4.2H19.1236V14H20.8036V10.668H22.4836C23.7342 10.668 24.6769 10.374 25.3116 9.786C25.9462 9.198 26.2636 8.414 26.2636 7.434C26.2636 6.38867 25.9602 5.59067 25.3536 5.04C24.7562 4.48 23.7996 4.2 22.4836 4.2ZM20.8036 9.184V5.684H22.4836C23.1836 5.684 23.6922 5.838 24.0096 6.146C24.3362 6.44467 24.4996 6.874 24.4996 7.434C24.4996 7.966 24.3316 8.39067 23.9956 8.708C23.6596 9.02533 23.1556 9.184 22.4836 9.184H20.8036Z" fill="#007ABD"/>
</svg>
